<?xml version="1.0" standalone="no"?>
<!DOCTYPE svg PUBLIC "-//W3C//DTD SVG 20010904//EN"
 "http://www.w3.org/TR/2001/REC-SVG-20010904/DTD/svg10.dtd">
<svg version="1.0" xmlns="http://www.w3.org/2000/svg"
 width="540.000000pt" height="540.000000pt" viewBox="0 0 540.000000 540.000000"
 preserveAspectRatio="xMidYMid meet">
<metadata>
Created by potrace 1.11, written by Peter Selinger 2001-2013
</metadata>
<g transform="translate(0.000000,540.000000) scale(0.100000,-0.100000)"
fill="#000000" stroke="none">
<path d="M2499 5396 c-2 -2 -35 -6 -74 -9 -350 -30 -762 -164 -1080 -351 -68
-40 -129 -78 -150 -93 -6 -5 -33 -24 -60 -43 -49 -33 -173 -130 -206 -160 -93
-85 -221 -216 -294 -300 -258 -300 -473 -724 -561 -1105 -53 -234 -69 -375
-68 -635 0 -243 5 -304 40 -500 80 -460 328 -960 649 -1309 58 -63 213 -213
265 -257 52 -43 227 -174 252 -189 10 -5 55 -33 101 -61 117 -72 272 -148 407
-201 110 -43 316 -107 383 -119 18 -3 51 -9 74 -15 57 -12 161 -27 253 -37 95
-9 453 -9 545 0 516 53 1021 262 1420 587 120 98 289 262 361 351 16 19 31 37
34 40 15 15 83 105 131 175 233 337 394 740 450 1130 21 144 24 195 24 390 0
272 -8 350 -61 618 -28 143 -111 377 -199 564 -317 670 -936 1202 -1650 1417
-108 33 -118 36 -142 40 -10 2 -52 11 -93 20 -87 17 -196 35 -260 42 -53 6
-486 14 -491 10z"/>
</g>
</svg>
